# AST/ASF file generated using VICON BodyLanguage
# -----------------------------------------------
:version 1.10
:name VICON
:units
  mass 1.0
  length 0.45
  angle deg
:documentation
   .ast/.asf automatically generated from VICON data using
   VICON BodyBuilder and BodyLanguage model FoxedUp or BRILLIANT.MOD
:root
   order TX TY TZ RX RY RZ
   axis XYZ
   position 0 0 0  
   orientation 0 0 0 
:bonedata
  begin
     id 1 
     name lhipjoint
     direction 0.711131 -0.61297 0.344326 
     length 2.29162 
     axis 0 0 0  XYZ
  end
  begin
     id 2 
     name lfemur
     direction 0.34202 -0.939693 0  
     length 6.71424  
     axis 0 0 20  XYZ
    dof rx ry rz
    limits (-160.0 20.0)
           (-70.0 70.0)
           (-60.0 70.0)
  end
  begin
     id 3 
     name ltibia
     direction 0.34202 -0.939693 0   
     length 6.7087   
     axis 0 0 20   XYZ
    dof rx
    limits (-10.0 170.0)
  end
  begin
     id 4 
     name lfoot
     direction 0.0230374 -0.0632947 0.997729   
     length 1.56743   
     axis -90 7.62852e-016 20   XYZ
    dof rx rz
    limits (-45.0 90.0)
           (-70.0 20.0)
  end
  begin
     id 5 
     name ltoes
     direction 1.53585e-011 -4.21885e-011 1   
     length 0.802914   
     axis -90 7.62852e-016 20   XYZ
    dof rx
    limits (-90.0 20.0)
  end
  begin
     id 6 
     name rhipjoint
     direction -0.733192 -0.592884 0.333043   
     length 2.36925  
     axis 0 0 0  XYZ 
  end
  begin
     id 7 
     name rfemur
     direction -0.34202 -0.939693 0   
     length 6.67027   
     axis 0 0 -20   XYZ
    dof rx ry rz
    limits (-160.0 20.0)
           (-70.0 70.0)
           (-70.0 60.0)
  end
  begin
     id 8 
     name rtibia
     direction -0.34202 -0.939693 0   
     length 6.6862   
     axis 0 0 -20   XYZ
    dof rx
    limits (-10.0 170.0)
 end
 begin
     id 9 
     name rfoot
     direction -0.0949739 -0.260939 0.960672   
     length 1.67698  
     axis -90 -7.62852e-016 -20   XYZ
    dof rx rz
    limits (-45.0 90.0)
           (-20.0 70.0)
  end
  begin
     id 10 
     name rtoes
     direction -1.5353e-011 -4.21868e-011 1   
     length 0.846298   
     axis -90 -7.62852e-016 -20   XYZ
    dof rx
    limits (-90.0 20.0)
  end
  begin
     id 11 
     name lowerback
     direction -0.0206828 0.999785 -0.00109866   
     length 2.04382   
     axis 0 0 0   XYZ
    dof rx ry rz
    limits (-20.0 45.0)
           (-30.0 30.0)
           (-30.0 30.0)
  end
  begin
     id 12 
     name upperback
     direction -0.0105003 0.999727 -0.0208904   
     length 2.04538   
     axis 0 0 0   XYZ
    dof rx ry rz
    limits (-20.0 45.0)
           (-30.0 30.0)
           (-30.0 30.0)
  end
  begin
     id 13 
     name thorax
     direction -0.000416255 0.999808 -0.0196023   
     length 2.0399   
     axis 0 0 0   XYZ
    dof rx ry rz
    limits (-20.0 45.0)
           (-30.0 30.0)
           (-30.0 30.0)
  end
  begin
     id 14 
     name lowerneck
     direction 0.0627861 0.989205 0.13241   
     length 1.46207   
     axis 0 0 0   XYZ
    dof rx ry rz
    limits (-20.0 45.0)
           (-30.0 30.0)
           (-30.0 30.0)
  end
  begin
     id 15 
     name upperneck
     direction 0.00627179 0.994526 0.104303   
     length 1.41419   
     axis 0 0 0   XYZ
    dof rx ry rz
    limits (-20.0 45.0)
           (-30.0 30.0)
           (-30.0 30.0)
  end
  begin
     id 16
     name head
     direction -0.00443838 0.999688 0.0245968  
     length 1.50718  
     axis 0 0 0   XYZ
    dof rx ry rz
    limits (-20.0 45.0)
           (-30.0 30.0)
           (-30.0 30.0)
  end
  begin
     id 17 
     name lclavicle
     direction 0.758742 0.650995 -0.0227258  
     length 2.86888  
     axis 0 0 0   XYZ
    dof ry rz
    limits (-20.0 10.0)
           (0.0 20.0)
  end
  begin
     id 18 
     name lhumerus
     direction 1 -4.48962e-011 1.06664e-027   
     length 4.65776   
     axis -180 -30 -90   XYZ
    dof rx ry rz
    limits (-60.0 90.0)
           (-90.0 90.0)
           (-90.0 90.0)
  end
  begin
     id 19
     name lradius
     direction 1 -4.48968e-011 1.40404e-026   
     length 3.55539   
     axis -180 -30 -90   XYZ
    dof rx
    limits (-10.0 170.0)
  end
  begin
     id 20
     name lwrist
     direction 1 -4.48976e-011 3.32647e-026   
     length 1.77769   
     axis -2.20186e-014 90 90   XYZ
    dof ry
    limits (-180.0 0.0)
 end
  begin
     id 21 
     name lhand
     direction 1 -4.48982e-011 6.65293e-026   
     length 0.707264   
     axis -4.24514e-014 90 90   XYZ
    dof rx rz
    limits (-90.0 90.0)
           (-45.0 45.0)
  end
  begin
     id 22 
     name lfingers
     direction 1 -4.48966e-011 1.33059e-025   
     length 0.570215   
     axis -8.49028e-014 90 90   XYZ
    dof rx
    limits (0.0 90.0)
  end
  begin
     id 23
     name lthumb
     direction 0.707107 -6.3493e-011 0.707107   
     length 0.818718   
     axis -90 45 2.85299e-015   XYZ
    dof rx rz
    limits (-45.0 45.0)
           (-45.0 45.0)
  end
  begin
     id 24 
     name rclavicle
     direction -0.870343 0.482028 -0.100759   
     length 3.2251  
     axis 0 0 0   XYZ 
    dof ry rz
    limits (-10.0 20.0)
           (-20.0 0.0)
  end
  begin
     id 25 
     name rhumerus
     direction -1 -4.48974e-011 -9.45849e-028  
     length 4.71925   
     axis -180 30 90   XYZ
    dof rx ry rz
    limits (-90.0 60.0)
           (-90.0 90.0)
           (-90.0 90.0)
  end
  begin
     id 26 
     name rradius
     direction -1 -4.48965e-011 1.17607e-026   
     length 3.5699   
     axis -180 30 90   XYZ
    dof rx
    limits (-10.0 170.0)
  end
  begin
     id 27 
     name rwrist
     direction -1 -4.48968e-011 3.32647e-026   
     length 1.78495   
     axis -2.20186e-014 -90 -90   XYZ
    dof ry
    limits (-180.0 0.0)
  end
  begin
     id 28
     name rhand
     direction -1 -4.48995e-011 6.65293e-026   
     length 0.507757   
     axis -4.24514e-014 -90 -90   XYZ
    dof rx rz
    limits (-90.0 90.0)
           (-45.0 45.0)
  end
  begin
     id 29
     name rfingers
     direction -1 -4.48864e-011 1.33059e-025   
     length 0.409367   
     axis -8.49028e-014 -90 -90   XYZ
    dof rx
    limits (0.0 90.0)
  end
  begin
     id 30
     name rthumb
     direction -0.707107 -6.3494e-011 0.707107   
     length 0.587771   
     axis -90 -45 -2.85299e-015   XYZ
    dof rx rz
    limits (-45.0 45.0)
           (-45.0 45.0)
  end
:hierarchy
  begin
    root lhipjoint rhipjoint lowerback
    lhipjoint lfemur
    lfemur ltibia
    ltibia lfoot
    lfoot ltoes
    rhipjoint rfemur
    rfemur rtibia
    rtibia rfoot
    rfoot rtoes
    lowerback upperback
    upperback thorax
    thorax lowerneck lclavicle rclavicle
    lowerneck upperneck
    upperneck head
    lclavicle lhumerus
    lhumerus lradius
    lradius lwrist
    lwrist lhand lthumb
    lhand lfingers
    rclavicle rhumerus
    rhumerus rradius
    rradius rwrist
    rwrist rhand rthumb
    rhand rfingers
  end

#!OML:ASF E:\Steps\Project 1\Capture day 1\Session 2\Subject.ASF
:FULLY-SPECIFIED
:DEGREES
48
root -1.11697 19.6133 20.4974 -154.471 -4.52594 179.099
lowerback -29.53 -2.86157 -6.52099
upperback -1.39825 -2.25972 0.183639
thorax 14.2163 -1.70515 2.78692
lowerneck -4.01142 -3.11103 -1.55246
upperneck 14.8303 -5.64408 5.38533
head 5.315 -2.80396 1.57348
rclavicle 1.06847e-014 -1.35174e-014
rhumerus -37.583 -20.901 -75.9522
rradius 29.4948
rwrist -1.89214
rhand -2.56787 -57.8707
rfingers 7.12502
rthumb 23.1286 -86.5023
lclavicle 1.06847e-014 -1.35174e-014
lhumerus -31.7038 7.77862 78.8061
lradius 21.2526
lwrist -4.45466
lhand -20.7083 -11.5958
lfingers 7.12502
lthumb 5.65603 18.3087
rfemur -23.1379 6.61047 20.4481
rtibia 9.1481
rfoot -20.3235 -4.10073
rtoes -25.2955
lfemur -24.2299 -8.27473 -22.0683
ltibia 11.6062
lfoot -9.86238 -1.48305
ltoes -7.18191
49
root -1.11642 19.6099 20.4944 -154.482 -4.50826 179.16
lowerback -29.5477 -2.83929 -6.56125
upperback -1.4118 -2.22247 0.213181
thorax 14.2072 -1.69228 2.85511
lowerneck -3.982 -3.11292 -1.56646
upperneck 14.8846 -5.66478 5.43114
head 5.3292 -2.81499 1.58867
rclavicle -9.93923e-016 -2.66371e-014
rhumerus -37.6484 -20.873 -75.9168
rradius 29.5736
rwrist -1.59802
rhand -2.15835 -58.3124
rfingers 7.12502
rthumb 23.5215 -86.8942
lclavicle -9.93923e-016 -2.66371e-014
lhumerus -31.7445 7.82082 78.8374
lradius 21.2685
lwrist -4.61555
lhand -20.8312 -11.657
lfingers 7.12502
lthumb 5.53734 18.2506
rfemur -23.2924 6.6354 20.5265
rtibia 9.50281
rfoot -20.4997 -4.21431
rtoes -25.6354
lfemur -24.431 -8.32881 -21.9957
ltibia 12.0514
lfoot -10.0955 -1.39008
ltoes -7.68632
50
root -1.11536 19.6062 20.4921 -154.47 -4.51297 179.27
lowerback -29.5447 -2.78889 -6.55381
upperback -1.42851 -2.16553 0.245017
thorax 14.1823 -1.66696 2.90882
lowerneck -3.93836 -3.1469 -1.60102
upperneck 14.8254 -5.72161 5.54413
head 5.30964 -2.83938 1.62717
rclavicle 1.0138e-014 -6.75868e-015
rhumerus -37.705 -20.7981 -75.977
rradius 29.6367
rwrist -1.75888
rhand -2.69256 -58.4091
rfingers 7.12502
rthumb 23.009 -87.0557
lclavicle 1.0138e-014 -6.75868e-015
lhumerus -31.7516 7.57148 78.9529
lradius 21.3371
lwrist -4.49638
lhand -20.9003 -11.5654
lfingers 7.12502
lthumb 5.47065 18.344
rfemur -23.4539 6.76859 20.6544
rtibia 9.8137
rfoot -20.6378 -4.3967
rtoes -25.8532
lfemur -24.6634 -8.31675 -21.8575
ltibia 12.4829
lfoot -10.5072 -1.38704
ltoes -9.3076
51
root -1.11615 19.6029 20.4898 -154.543 -4.49077 179.364
lowerback -29.4494 -2.74227 -6.49183
upperback -1.42893 -2.13041 0.262562
thorax 14.1351 -1.64524 2.91215
lowerneck -3.9107 -3.18702 -1.62303
upperneck 14.7969 -5.77592 5.56783
head 5.29945 -2.86634 1.63554
rclavicle -1.3418e-015 3.97569e-016
rhumerus -37.7438 -20.8077 -75.9701
rradius 29.665
rwrist -1.70693
rhand -2.8222 -58.2535
rfingers 7.12502
rthumb 22.8846 -86.9156
lclavicle -1.3418e-015 3.97569e-016
lhumerus -31.7942 7.20937 79.0926
lradius 21.474
lwrist -4.14419
lhand -20.898 -11.4409
lfingers 7.12502
lthumb 5.47281 18.4684
rfemur -23.543 6.70554 20.8022
rtibia 10.1549
rfoot -20.8009 -4.33525
rtoes -26.2713
lfemur -24.7716 -8.42505 -21.7464
ltibia 12.8675
lfoot -10.8296 -1.25332
ltoes -9.97353
52
root -1.1174 19.6 20.487 -154.653 -4.41714 179.454
lowerback -29.3373 -2.68697 -6.39747
upperback -1.43419 -2.09401 0.259832
thorax 14.0727 -1.62031 2.87686
lowerneck -3.81914 -3.17399 -1.66377
upperneck 14.8132 -5.75597 5.53613
head 5.28811 -2.8641 1.63529
rclavicle -1.49089e-015 -4.37326e-015
rhumerus -37.7709 -20.7784 -75.9768
rradius 29.6611
rwrist -1.72079
rhand -2.89916 -58.0824
rfingers 7.12502
rthumb 22.8107 -86.7536
lclavicle -1.49089e-015 -4.37326e-015
lhumerus -31.8716 7.04719 79.1478
lradius 21.5769
lwrist -3.93056
lhand -20.8321 -11.3784
lfingers 7.12502
lthumb 5.53645 18.5293
rfemur -23.6026 6.55234 20.9407
rtibia 10.4954
rfoot -20.977 -4.09506
rtoes -26.5725
lfemur -24.851 -8.56454 -21.6542
ltibia 13.2791
lfoot -11.0701 -0.973766
ltoes -10.1475
53
root -1.11836 19.5973 20.4854 -154.738 -4.36581 179.49
lowerback -29.252 -2.66407 -6.37032
upperback -1.40409 -2.06966 0.254299
thorax 14.066 -1.60501 2.86888
lowerneck -3.78822 -3.20371 -1.68324
upperneck 14.8553 -5.7933 5.47969
head 5.2962 -2.88804 1.61892
rclavicle 1.9133e-014 -2.78299e-015
rhumerus -37.7506 -20.734 -76.0133
rradius 29.7191
rwrist -1.79768
rhand -2.89428 -58.0404
rfingers 7.12502
rthumb 22.8154 -86.7111
lclavicle 1.9133e-014 -2.78299e-015
lhumerus -31.8683 7.02483 79.1798
lradius 21.6111
lwrist -3.92921
lhand -20.7836 -11.3513
lfingers 7.12502
lthumb 5.58329 18.5551
rfemur -23.6455 6.68638 20.9649
rtibia 10.769
rfoot -21.1137 -4.21723
rtoes -26.7285
lfemur -24.982 -8.73167 -21.6066
ltibia 13.7252
lfoot -11.3864 -0.806165
ltoes -10.059
54
root -1.1194 19.5939 20.4829 -154.817 -4.3559 179.46
lowerback -29.176 -2.71272 -6.44549
upperback -1.35379 -2.10443 0.273674
thorax 14.0961 -1.62331 2.91946
lowerneck -3.84239 -3.27782 -1.72648
upperneck 14.9099 -5.89733 5.47927
head 5.32761 -2.94002 1.61779
rclavicle 1.59028e-014 2.0276e-014
rhumerus -37.7066 -20.5318 -76.0859
rradius 29.8331
rwrist -1.9473
rhand -2.72282 -57.9075
rfingers 7.12502
rthumb 22.98 -86.5578
lclavicle 1.59028e-014 2.0276e-014
lhumerus -31.8392 7.07187 79.21
lradius 21.6131
lwrist -3.90442
lhand -20.7713 -11.6544
lfingers 7.12502
lthumb 5.59511 18.2517
rfemur -23.679 7.07841 20.8751
rtibia 11.0687
rfoot -21.2766 -4.66803
rtoes -26.8586
lfemur -25.0812 -9.03962 -21.6108
ltibia 14.1327
lfoot -11.715 -0.616276
ltoes -9.80345
55
root -1.11961 19.59 20.4774 -154.92 -4.34078 179.391
lowerback -29.066 -2.77628 -6.5876
upperback -1.35352 -2.14605 0.274457
thorax 14.0534 -1.64888 2.9844
lowerneck -3.85777 -3.3489 -1.72454
upperneck 15.1102 -6.03218 5.48234
head 5.39777 -3.01052 1.60745
rclavicle 3.42904e-015 -4.77083e-015
rhumerus -37.7842 -20.2821 -76.1608
rradius 29.9511
rwrist -2.077
rhand -2.5714 -58.0589
rfingers 7.12502
rthumb 23.1253 -86.691
lclavicle 3.42904e-015 -4.77083e-015
lhumerus -31.9351 7.03458 79.2017
lradius 21.6799
lwrist -3.72165
lhand -20.6364 -12.0468
lfingers 7.12502
lthumb 5.72541 17.8559
rfemur -23.6418 7.21648 20.7876
rtibia 11.2969
rfoot -21.43 -4.76323
rtoes -26.4287
lfemur -25.1398 -9.37716 -21.6686
ltibia 14.5588
lfoot -12.0132 -0.341938
ltoes -10.3083
56
root -1.11925 19.587 20.4723 -155.041 -4.32376 179.345
lowerback -28.9583 -2.80874 -6.70857
upperback -1.32938 -2.14648 0.250715
thorax 14.0336 -1.65364 3.02743
lowerneck -3.88748 -3.35147 -1.63338
upperneck 15.2663 -6.05843 5.41172
head 5.44785 -3.02528 1.5666
rclavicle -1.25731e-014 1.94809e-014
rhumerus -37.7683 -20.2648 -76.2239
rradius 29.9459
rwrist -2.06124
rhand -2.58356 -58.4372
rfingers 7.12502
rthumb 23.1136 -87.0707
lclavicle -1.25731e-014 1.94809e-014
lhumerus -31.9838 6.9677 79.1585
lradius 21.7687
lwrist -3.48616
lhand -20.3061 -12.1118
lfingers 7.12502
lthumb 6.04426 17.7819
rfemur -23.5384 7.23585 20.7507
rtibia 11.4087
rfoot -21.5285 -4.73178
rtoes -26.0008
lfemur -25.1766 -9.5848 -21.7255
ltibia 14.9722
lfoot -12.2094 -0.19149
ltoes -10.2132
57
root -1.12016 19.5844 20.4693 -155.107 -4.32069 179.375
lowerback -28.8955 -2.82576 -6.73175
upperback -1.30139 -2.15874 0.251015
thorax 14.0394 -1.65885 3.03769
lowerneck -3.97389 -3.35442 -1.51771
upperneck 15.3762 -6.06702 5.29616
head 5.49062 -3.02874 1.50823
rclavicle -1.47598e-014 -3.97569e-015
rhumerus -37.6949 -20.3763 -76.2431
rradius 29.8861
rwrist -1.98877
rhand -2.6458 -58.3848
rfingers 7.12502
rthumb 23.0539 -87.0258
lclavicle -1.47598e-014 -3.97569e-015
lhumerus -31.9648 7.08049 79.0544
lradius 21.7948
lwrist -3.44427
lhand -19.9311 -11.994
lfingers 7.12502
lthumb 6.4063 17.8891
rfemur -23.5227 7.4916 20.7579
rtibia 11.5641
rfoot -21.6525 -5.03245
rtoes -26.4665
lfemur -25.3046 -9.63593 -21.7122
ltibia 15.4249
lfoot -12.3878 -0.146471
ltoes -10.0755
58
root -1.12087 19.5802 20.4663 -155.131 -4.35971 179.452
lowerback -28.8012 -2.81561 -6.68645
upperback -1.35416 -2.17394 0.25089
thorax 13.9356 -1.66134 3.01071
lowerneck -3.95858 -3.40794 -1.4409
upperneck 15.5201 -6.1765 5.28777
head 5.53459 -3.08384 1.48454
rclavicle 3.27995e-015 1.11319e-014
rhumerus -37.8038 -20.5126 -76.2026
rradius 29.9066
rwrist -1.86392
rhand -2.5254 -58.1525
rfingers 7.12502
rthumb 23.1694 -86.7791
lclavicle 3.27995e-015 1.11319e-014
lhumerus -32.0412 7.14824 78.942
lradius 21.7489
lwrist -3.80526
lhand -19.9436 -11.8763
lfingers 7.12502
lthumb 6.39426 18.0072
rfemur -23.5912 7.61183 20.8492
rtibia 11.7983
rfoot -21.7819 -5.24807
rtoes -26.9259
lfemur -25.5443 -9.75161 -21.6046
ltibia 15.9828
lfoot -12.6551 -0.111165
ltoes -9.89982
59
root -1.12157 19.5741 20.4616 -155.152 -4.40031 179.539
lowerback -28.7489 -2.77851 -6.62325
upperback -1.40496 -2.15559 0.237057
thorax 13.8487 -1.6482 2.97078
lowerneck -3.90259 -3.50872 -1.32955
upperneck 15.7442 -6.37871 5.3022
head 5.59978 -3.18545 1.45601
rclavicle 1.69464e-014 3.97569e-015
rhumerus -37.9042 -20.647 -76.1696
rradius 29.884
rwrist -1.82338
rhand -2.49342 -58.2037
rfingers 7.12502
rthumb 23.2001 -86.8264
lclavicle 1.69464e-014 3.97569e-015
lhumerus -32.1504 7.02589 78.9129
lradius 21.69
lwrist -4.12866
lhand -20.3879 -11.7879
lfingers 7.12502
lthumb 5.96528 18.1081
rfemur -23.6943 7.51223 20.9885
rtibia 12.1033
rfoot -21.9275 -5.1267
rtoes -26.4163
lfemur -25.7295 -10.0492 -21.4495
ltibia 16.4246
lfoot -12.9598 0.0810767
ltoes -9.23936
60
root -1.12318 19.5674 20.4537 -155.138 -4.37242 179.651
lowerback -28.86 -2.7502 -6.55861
upperback -1.38596 -2.13419 0.262103
thorax 13.9194 -1.63722 2.96751
lowerneck -3.94769 -3.61203 -1.2221
upperneck 16.0234 -6.57225 5.23754
head 5.69671 -3.2835 1.40102
rclavicle -3.77691e-015 1.51076e-014
rhumerus -37.8594 -20.5757 -76.2254
rradius 29.9464
rwrist -1.9692
rhand -2.53421 -58.268
rfingers 7.12502
rthumb 23.1609 -86.8956
lclavicle -3.77691e-015 1.51076e-014
lhumerus -32.1533 7.11491 78.9019
lradius 21.6182
lwrist -4.2557
lhand -20.6694 -11.8186
lfingers 7.12502
lthumb 5.6935 18.0849
rfemur -23.8994 7.45907 21.1354
rtibia 12.5374
rfoot -22.1653 -4.96869
rtoes -25.945
lfemur -25.895 -10.2183 -21.3065
ltibia 16.7693
lfoot -13.1522 0.285149
ltoes -9.02272
61
root -1.12261 19.5602 20.4438 -155.149 -4.33603 179.777
lowerback -28.9754 -2.72872 -6.51337
upperback -1.32545 -2.10929 0.301222
thorax 14.0412 -1.6256 2.99135
lowerneck -3.99658 -3.61117 -1.19765
upperneck 16.112 -6.58706 5.23658
head 5.73269 -3.28949 1.39349
rclavicle -4.87022e-015 0
rhumerus -37.8343 -20.3836 -76.3515
rradius 30.1
rwrist -2.21336
rhand -2.61577 -57.9579
rfingers 7.12502
rthumb 23.0827 -86.5953
lclavicle -4.87022e-015 0
lhumerus -32.0553 7.39664 78.8378
lradius 21.5158
lwrist -4.4521
lhand -20.658 -12.097
lfingers 7.12502
lthumb 5.70458 17.8062
rfemur -24.0051 7.48043 21.2993
rtibia 12.832
rfoot -22.3772 -4.91663
rtoes -26.0036
lfemur -26.0602 -10.2015 -21.1753
ltibia 17.193
lfoot -13.2979 0.3578
ltoes -9.65474
62
root -1.12096 19.5528 20.4334 -155.241 -4.31938 179.836
lowerback -28.9654 -2.704 -6.51861
upperback -1.27419 -2.06355 0.282487
thorax 14.0908 -1.60388 2.99216
lowerneck -4.03831 -3.6088 -1.10069
upperneck 16.2252 -6.6087 5.21264
head 5.77253 -3.2974 1.36625
rclavicle 7.25564e-015 2.38542e-015
rhumerus -37.9222 -20.2776 -76.4807
rradius 30.2598
rwrist -2.3843
rhand -2.68906 -57.6204
rfingers 7.12502
rthumb 23.0124 -86.2666
lclavicle 7.25564e-015 2.38542e-015
lhumerus -32.0213 7.39463 78.7917
lradius 21.4829
lwrist -4.49432
lhand -20.5712 -12.3127
lfingers 7.12502
lthumb 5.78831 17.5882
rfemur -23.9336 7.46011 21.4067
rtibia 12.9698
rfoot -22.5279 -4.88092
rtoes -26.236
lfemur -26.1045 -10.3284 -21.1099
ltibia 17.6074
lfoot -13.6316 0.516029
ltoes -10.383
